<?xml version="1.0" encoding="UTF-8" standalone="no"?>
<svg width="427px" height="110px" viewBox="0 0 427 110" version="1.1" xmlns="http://www.w3.org/2000/svg" xmlns:xlink="http://www.w3.org/1999/xlink" xmlns:sketch="http://www.bohemiancoding.com/sketch/ns">
    <title>logo_white</title>
    <description>Created with Sketch (http://www.bohemiancoding.com/sketch)</description>
    <defs></defs>
    <g id="Page-1" stroke="none" stroke-width="1" fill="none" fill-rule="evenodd" sketch:type="MSPage">
        <g id="logo" sketch:type="MSLayerGroup" transform="translate(1.000000, 1.000000)" fill="#FFFFFF">
            <g id="XMLID_1_" sketch:type="MSShapeGroup">
                <g id="KONTRAST">
                    <path d="M43.327,58.132 L42.019,57.313 L42.019,54.856 L39.705,49.326 L37.491,43.694 L32.863,32.634 L30.549,27.002 L29.443,24.237 L29.745,23.213 L33.568,18.195 L39.303,10.719 L44.032,4.575 L46.949,0.786 L46.547,-0.135 L44.635,0.07 L43.026,-0.238 L41.718,1.606 L40.511,2.015 L40.913,0.274 L39.304,-0.238 L35.18,-0.238 L31.356,4.37 L27.232,9.49 L26.528,10.719 L26.226,16.556 L25.723,17.068 L25.723,14.713 L24.717,13.074 L21.699,16.351 L18.178,21.574 L16.569,23.11 L11.639,29.356 L10.733,27.82 L10.733,6.725 L9.828,5.905 L9.526,4.472 L10.632,3.755 L10.632,1.605 L10.029,-0.239 L-0.133,-0.239 L-0.133,70.627 L10.732,70.627 L10.732,47.995 L16.768,39.904 L20.189,35.911 L21.295,36.525 L25.923,47.79 L29.444,56.188 L31.758,61.82 L34.072,67.349 L35.481,70.319 L37.09,70.626 L41.215,70.626 L42.421,70.217 L43.528,70.626 L47.753,70.626 L48.055,69.5 L43.93,59.771 L43.327,58.132 L43.327,58.132 Z M37.391,4.165 L38.598,3.448 L39.202,4.779 L38.598,5.905 L36.787,5.905 L36.485,5.393 L37.391,4.165 L37.391,4.165 Z M9.525,1.604 L9.827,1.604 L10.028,2.935 L9.324,3.242 L9.525,1.604 L9.525,1.604 Z M2.18,34.375 L3.489,33.965 L4.595,34.375 L2.18,34.887 L2.18,34.375 L2.18,34.375 Z M3.489,32.839 L4.595,32.019 L5.198,32.634 L3.489,32.839 L3.489,32.839 Z M5.4,37.856 L5.4,39.699 L4.294,39.699 L3.791,38.88 L4.093,37.242 L5.4,37.856 L5.4,37.856 Z M4.092,45.025 L3.489,44 L4.696,42.259 L5.4,42.874 L4.897,44 L5.903,44.819 L4.092,45.025 L4.092,45.025 Z M6.104,38.88 L6.104,37.856 L6.004,36.525 L6.909,35.706 L7.513,37.139 L7.01,38.88 L6.104,38.88 L6.104,38.88 Z M5.903,23.417 L6.708,22.905 L7.011,24.134 L6.105,24.748 L5.903,23.417 L5.903,23.417 Z M7.815,20.242 L5.4,22.7 L5.098,24.031 L3.79,27.206 L3.488,26.898 L3.89,25.362 L3.488,23.724 L3.488,20.038 L3.991,18.502 L3.79,16.044 L5.098,15.225 L5.601,13.894 L6.406,13.586 L6.104,15.43 L6.909,16.761 L7.211,16.761 L7.211,14.098 L7.815,14.815 L7.815,20.242 L7.815,20.242 Z M8.519,35.194 L8.821,34.375 L9.525,35.706 L8.519,35.194 L8.519,35.194 Z M31.657,39.597 L30.45,39.699 L28.941,40.211 L29.947,41.543 L30.047,42.874 L29.745,44.307 L28.94,45.331 L28.437,44.819 L28.135,41.338 L27.129,40.826 L25.72,38.88 L25.016,36.013 L23.91,35.194 L23.407,34.17 L23.91,33.043 L21.294,33.043 L19.986,33.863 L18.678,32.941 L17.37,32.531 L17.672,33.555 L16.867,34.375 L15.458,33.965 L14.352,32.634 L14.252,31.2 L16.567,28.231 L16.869,27.411 L18.177,26.695 L18.68,25.363 L20.289,25.363 L21.496,23.725 L22.1,22.394 L23.106,22.906 L23.106,24.237 L25.52,26.387 L26.526,25.875 L27.633,28.435 L29.444,28.743 L30.651,29.357 L31.254,30.381 L29.946,30.688 L28.437,30.381 L28.94,31.712 L30.248,32.839 L31.254,34.887 L31.254,37.037 L31.757,37.856 L31.657,39.597 L31.657,39.597 Z M45.138,64.482 L43.83,65.506 L43.629,67.042 L42.523,68.169 L41.215,67.452 L39.906,67.964 L38.297,66.121 L38.297,62.639 L37.794,62.127 L36.989,62.639 L37.592,61.308 L38.598,61.001 L38.296,60.181 L39.101,59.157 L40.912,57.519 L41.215,58.645 L40.912,59.772 L40.912,61.001 L41.215,62.127 L41.617,62.127 L41.617,61.001 L43.831,63.663 L43.831,62.844 L44.837,63.356 L45.138,64.482 L45.138,64.482 Z" id="XMLID_102_"></path>
                    <path d="M97.061,2.837 L95.94,1.708 L93.251,0.17 L91.682,-0.24 L59.743,-0.24 L56.269,0.273 L53.692,2.119 L51.786,4.683 L50.89,7.657 L50.89,60.987 L51.226,64.268 L51.786,65.704 L53.692,68.166 L55.036,69.191 L56.494,69.908 L58.286,70.319 L60.639,70.114 L77.002,70.626 L78.234,69.499 L79.019,67.55 L78.458,66.832 L77.226,67.448 L72.855,67.96 L70.838,66.832 L69.381,67.344 L67.924,67.448 L66.915,66.319 L66.803,64.884 L67.7,63.653 L70.95,62.32 L72.295,62.832 L75.657,62.935 L77.226,62.627 L80.139,62.832 L83.053,62.012 L85.407,60.165 L84.622,59.448 L65.571,59.448 L64.001,58.73 L62.993,57.294 L62.657,52.782 L62.657,48.167 L60.639,46.833 L62.657,46.526 L60.528,44.885 L59.519,43.654 L58.735,44.372 L58.622,46.116 L56.83,46.116 L55.149,44.475 L53.355,44.475 L53.132,42.834 L54.588,42.321 L54.588,40.167 L53.915,39.141 L54.475,36.886 L53.915,35.45 L54.252,34.322 L54.252,31.655 L53.915,29.502 L54.588,26.117 L54.812,22.63 L54.252,21.81 L54.252,19.348 L53.915,17.502 L54.812,11.349 L54.812,8.17 L55.596,7.041 L56.941,5.914 L58.286,5.503 L58.958,3.657 L60.079,3.657 L61.537,3.144 L62.993,3.657 L62.097,4.99 L63.329,5.503 L62.433,6.016 L60.976,7.349 L59.295,6.939 L58.286,7.965 L58.286,15.964 L58.622,17.81 L59.519,18.63 L59.519,19.964 L60.079,20.99 L59.743,22.835 L58.286,25.502 L59.743,25.809 L59.743,27.347 L61.424,28.271 L62.097,29.502 L60.976,30.629 L60.976,32.168 L62.208,31.04 L62.881,29.502 L62.881,12.989 L63.778,11.656 L65.346,10.836 L84.286,10.836 L85.631,11.451 L86.639,12.477 L87.088,13.811 L87.088,38.321 L87.424,39.654 L87.199,41.296 L87.199,53.705 L86.303,59.858 L87.088,60.474 L87.984,59.756 L88.096,58.32 L89.553,57.499 L90.114,55.961 L89.553,54.012 L90.45,50.628 L91.01,49.808 L91.01,46.32 L90.225,44.578 L90.114,42.834 L88.32,39.141 L89.777,39.141 L90.674,41.501 L93.027,42.116 L93.476,43.552 L94.484,43.962 L95.94,45.295 L94.372,47.038 L93.587,46.833 L93.363,48.167 L94.708,48.68 L95.38,49.808 L94.82,51.141 L94.82,58.114 L94.484,59.448 L96.277,58.832 L97.061,60.474 L96.501,60.987 L95.38,63.653 L94.148,63.447 L92.131,65.499 L90.674,65.293 L91.234,62.114 L90.114,62.832 L88.096,66.319 L86.863,66.832 L85.407,67.96 L85.407,70.114 L88.096,70.626 L91.57,70.319 L94.372,69.396 L95.604,68.678 L97.398,66.832 L98.519,64.268 L99.079,60.987 L99.079,8.272 L98.63,5.401 L97.061,2.837 Z" id="XMLID_101_"></path>
                    <path d="M144.685,30.95 L144.365,36.574 L142.019,33.711 L138.501,28.495 L131.464,18.269 L127.093,11.725 L122.721,5.283 L119.203,0.17 L117.604,-0.239 L116.112,0.17 L115.579,0.783 L115.046,-0.138 L108.116,-0.138 L107.583,0.783 L107.583,70.115 L108.116,70.626 L118.031,70.626 L118.67,69.502 L118.67,28.803 L118.883,20.315 L119.31,20.008 L122.828,25.224 L126.452,30.439 L132.636,39.541 L137.007,46.085 L140.632,51.301 L145.322,58.459 L146.282,58.663 L146.921,57.948 L146.921,56.823 L145.749,54.881 L145.749,53.347 L144.683,52.222 L145.003,50.381 L142.977,50.176 L142.977,48.847 L142.232,48.029 L142.232,47.211 L140.206,45.574 L139.567,44.143 L139.353,42.609 L140.206,41.382 L140.206,43.222 L141.059,44.654 L142.445,44.04 L141.806,42.916 L142.445,41.382 L144.151,42.711 L145.537,42.2 L147.136,42.2 L148.522,40.564 L149.375,41.075 L149.375,37.904 L150.548,36.575 L151.081,39.541 L150.761,41.075 L151.614,41.586 L153,41.38 L153.32,42.709 L153.32,44.243 L153.853,46.186 L153.32,47.72 L154.386,48.844 L153.32,49.867 L154.067,50.89 L153.214,51.708 L153.534,52.833 L154.387,52.014 L155.453,54.367 L155.773,52.833 L155.773,-0.138 L144.686,-0.138 L144.686,30.95 L144.685,30.95 Z M111.101,6.202 L111.421,4.361 L112.487,6.202 L111.101,6.202 L111.101,6.202 Z M115.685,6.817 L114.192,5.998 L113.659,5.18 L112.487,4.157 L113.34,2.828 L114.833,4.055 L116.113,5.486 L115.685,6.817 L115.685,6.817 Z M117.498,7.328 L117.285,7.02 L119.204,6.202 L119.524,6.918 L117.498,7.328 L117.498,7.328 Z" id="XMLID_96_"></path>
                    <path d="M148.309,67.661 L147.456,64.491 L146.071,61.526 L144.685,62.65 L144.685,70.32 L145.218,70.626 L150.549,70.626 L149.908,68.479 L148.309,67.661 Z" id="XMLID_95_"></path>
                    <path d="M152.148,57.537 L153.32,60.81 L152.574,62.344 L153.534,65.718 L154.706,66.843 L153.853,68.991 L153.32,67.15 L152.574,68.991 L153,70.32 L154.386,70.525 L155.772,70.32 L155.772,67.661 L155.452,66.331 L154.386,65.309 L154.386,63.979 L155.772,63.162 L155.772,56.821 L153.853,56.208 L152.148,57.537 Z" id="XMLID_94_"></path>
                    <path d="M188.188,13.585 L186.673,13.483 L184.939,12.971 L183.749,12.049 L183.424,10.718 L183.966,9.899 L185.698,10.104 L185.048,8.568 L185.698,7.237 L184.832,6.725 L185.59,5.803 L184.832,4.779 L184.832,2.423 L186.456,1.911 L186.131,0.375 L184.507,-0.24 L182.883,-0.24 L181.691,2.116 L180.5,0.682 L179.2,0.272 L179.634,1.706 L179.2,3.243 L178.551,2.32 L178.334,0.58 L177.468,-0.24 L167.072,-0.24 L165.989,0.784 L165.123,-0.24 L163.39,0.58 L162.415,1.604 L161.874,2.629 L161.441,10.411 L161.766,10.718 L164.581,10.718 L165.773,10.001 L167.072,9.592 L169.022,10.718 L176.927,10.718 L179.2,10.923 L179.634,11.23 L179.634,70.626 L191.329,70.626 L191.329,56.801 L191.004,56.494 L189.271,57.006 L188.08,57.62 L186.78,57.825 L186.348,56.392 L187.863,53.012 L187.863,51.988 L189.488,50.964 L191.329,50.862 L190.787,49.121 L189.055,49.326 L187.214,48.507 L187.214,46.356 L185.915,45.537 L187.863,45.332 L188.729,47.483 L191.329,47.688 L191.329,17.887 L190.68,16.658 L190.68,15.224 L191.329,13.585 L191.329,12.254 L189.921,12.152 L188.188,13.585 Z" id="XMLID_93_"></path>
                    <path d="M196.635,1.399 L195.011,2.116 L195.768,0.068 L195.553,-0.24 L187.863,-0.24 L188.514,1.706 L189.597,2.116 L189.921,3.243 L191.654,2.936 L193.495,2.116 L195.227,3.243 L196.419,3.243 L197.177,3.755 L198.585,2.423 L200.858,1.911 L202.807,2.423 L204.865,2.423 L208.438,3.345 L209.63,2.936 L209.63,-0.24 L197.826,-0.24 L196.635,1.399 Z" id="XMLID_92_"></path>
                    <path d="M208.438,5.086 L207.356,4.574 L206.273,7.237 L206.273,7.749 L204.973,8.465 L202.916,8.67 L201.4,8.568 L199.992,9.387 L199.343,7.851 L198.043,6.929 L196.635,7.749 L195.553,7.749 L193.928,8.465 L192.737,9.387 L191.437,8.977 L190.68,8.261 L189.597,10.104 L191.329,10.616 L204.216,10.616 L205.407,9.694 L207.031,9.592 L208.763,9.797 L209.197,8.363 L209.089,6.52 L208.438,5.086 Z" id="XMLID_91_"></path>
                    <path d="M260.512,40.211 L257.65,38.163 L256.162,37.754 L254.559,37.856 L253.759,38.368 L254.216,37.447 L257.307,36.525 L258.795,35.808 L261.427,33.555 L262.458,32.122 L263.03,30.586 L263.259,29.05 L263.259,7.441 L263.03,5.905 L261.656,3.243 L259.138,1.093 L257.65,0.376 L254.331,-0.239 L215.3,-0.239 L215.3,70.627 L220.68,70.627 L222.283,70.218 L222.667,70.316 L222.662,70.32 L223.276,70.627 L223.276,70.472 L223.885,70.627 L226.862,70.627 L227.434,70.32 L227.434,69.122 L227.448,69.11 L228.287,69.809 L228.595,70.627 L228.39,67.764 L227.674,67.15 L227.434,67.257 L227.434,43.183 L227.777,42.876 L242.771,42.876 L247.465,42.671 L248.494,41.545 L248.952,40.111 L248.952,38.677 L247.464,37.346 L247.464,36.22 L248.379,37.346 L250.096,36.527 L251.355,36.22 L252.271,34.889 L252.843,35.401 L252.729,37.141 L251.927,40.213 L251.355,38.165 L250.898,38.165 L250.898,41.34 L249.524,42.159 L249.638,43.593 L250.669,44.617 L251.241,45.845 L251.241,57.827 L251.584,61.309 L252.843,60.797 L252.729,62.333 L251.355,63.152 L251.355,70.628 L263.489,70.628 L263.489,45.845 L262.687,43.081 L260.512,40.211 L260.512,40.211 Z M224.227,35.501 L224.571,35.501 L224.571,35.706 L224.227,35.706 L224.227,35.501 L224.227,35.501 Z M221.595,40.826 L221.824,38.368 L221.595,35.706 L223.655,36.832 L224.572,37.037 L224.8,37.856 L226.861,37.344 L227.089,38.471 L225.716,41.543 L223.082,41.338 L221.709,42.259 L220.335,42.157 L221.595,40.826 L221.595,40.826 Z M223.655,53.524 L222.167,54.856 L221.595,56.494 L220.336,56.187 L219.764,54.856 L220.221,53.627 L222.167,50.964 L221.595,50.145 L221.595,48.2 L220.909,46.868 L222.054,46.254 L222.969,43.08 L223.655,42.67 L223.083,46.152 L223.312,47.995 L224.227,49.531 L223.082,49.838 L225.371,51.476 L223.655,53.524 L223.655,53.524 Z M258.795,27.82 L256.964,29.561 L256.735,29.356 L256.964,28.127 L258.223,27.513 L258.795,27.82 L258.795,27.82 Z M256.964,15.429 L257.307,15.224 L257.307,15.736 L256.964,15.429 L256.964,15.429 Z M245.975,39.495 L245.403,39.495 L244.717,37.856 L245.06,36.832 L245.976,37.037 L245.976,39.495 L245.975,39.495 Z M248.379,39.392 L247.464,39.699 L247.12,38.163 L248.379,39.392 L248.379,39.392 Z M250.783,30.073 L250.21,31.2 L249.065,32.327 L247.806,32.839 L227.546,32.839 L227.546,10.923 L248.378,10.923 L249.866,11.537 L250.782,12.766 L250.782,30.073 L250.783,30.073 Z M252.27,10.718 L250.096,8.261 L248.608,8.773 L246.547,7.953 L245.059,5.598 L244.945,6.52 L243.571,7.441 L241.74,7.339 L240.023,6.725 L238.42,5.701 L238.534,4.677 L239.679,4.062 L241.282,4.165 L242.999,5.086 L245.402,3.755 L247.234,3.345 L249.294,3.243 L251.354,3.448 L251.011,5.905 L251.354,6.11 L253.758,3.55 L255.475,4.062 L256.734,6.827 L257.879,8.056 L257.307,11.23 L257.307,12.869 L256.735,14.097 L255.82,13.893 L254.446,12.357 L254.332,10.104 L252.27,10.718 L252.27,10.718 Z M255.819,42.157 L257.193,42.259 L254.56,44 L254.56,43.181 L253.76,41.543 L255.819,42.157 L255.819,42.157 Z M254.56,45.844 L257.651,44.308 L258.223,46.868 L257.88,48.404 L256.964,49.224 L255.476,48.507 L254.56,45.844 L254.56,45.844 Z" id="XMLID_78_"></path>
                    <path d="M267.27,66.639 L266.955,67.968 L266.323,70.115 L267.374,70.626 L268.321,69.502 L268.636,67.559 L268.006,65.82 L267.27,66.639 Z" id="XMLID_77_"></path>
                    <path d="M296.723,56.187 L295.676,54.958 L294.837,52.808 L293.582,53.729 L291.696,53.524 L291.068,52.808 L294.629,52.5 L294.943,50.964 L294.837,49.633 L293.476,49.019 L291.068,49.019 L291.905,51.988 L290.544,51.169 L289.183,49.019 L286.669,49.019 L286.669,51.169 L284.47,48.2 L282.48,49.428 L283.737,50.35 L284.26,51.476 L285.098,52.5 L284.365,53.934 L281.014,55.47 L281.538,55.982 L281.538,58.337 L281.014,58.85 L279.967,59.26 L279.862,60.489 L278.396,60.591 L277.139,61.308 L277.139,63.458 L275.778,64.789 L275.778,66.121 L274.207,68.476 L271.798,67.247 L270.856,69.295 L270.646,70.114 L272.845,70.626 L279.338,70.626 L279.757,70.217 L280.281,69.09 L282.375,59.362 L283.423,57.313 L286.669,57.108 L298.712,57.108 L297.875,56.289 L296.723,56.187 Z" id="XMLID_76_"></path>
                    <path d="M317.983,65.506 L317.983,61.513 L313.27,43.693 L312.851,42.157 L311.803,40.007 L311.803,38.368 L310.652,33.863 L309.604,33.351 L310.128,32.122 L308.662,26.284 L307.091,20.345 L305.102,12.971 L301.96,1.092 L301.121,-0.24 L286.983,-0.24 L286.459,0.58 L284.888,6.52 L282.899,13.79 L281.328,19.73 L278.605,30.073 L277.034,35.911 L276.092,40.519 L275.568,42.157 L275.778,43.693 L274.311,46.971 L273.054,51.169 L273.054,53.32 L272.217,54.548 L271.589,56.699 L271.379,58.543 L272.217,58.85 L273.368,57.006 L274.939,57.313 L275.254,56.084 L277.453,55.47 L275.778,53.32 L276.93,49.326 L277.663,48.507 L277.453,46.868 L279.757,45.23 L279.024,44.205 L279.862,43.488 L279.862,40.007 L280.281,38.675 L281.538,38.163 L281.747,39.187 L283.737,39.699 L283.737,41.85 L282.899,42.362 L282.899,43.488 L283.737,44.205 L284.574,46.766 L285.622,46.356 L287.088,40.519 L289.287,31.712 L291.277,24.338 L293.267,17.068 L293.79,16.043 L294.733,19.218 L297.456,29.458 L299.026,35.501 L300.597,41.338 L301.436,42.362 L301.436,44.103 L302.168,47.073 L302.274,48.814 L301.017,49.326 L300.283,50.555 L300.912,51.681 L302.483,53.012 L301.854,54.856 L301.75,55.88 L302.378,56.494 L304.158,57.313 L305.52,59.977 L306.357,59.055 L306.043,58.132 L307.091,57.313 L306.253,56.289 L305.834,52.91 L305.415,51.169 L304.368,49.838 L306.567,47.688 L305.625,46.664 L305.52,44 L306.043,42.874 L306.043,40.519 L305.729,39.699 L306.043,38.675 L304.682,37.549 L303.739,37.754 L304.158,36.013 L305.52,35.501 L306.357,36.832 L307.928,37.037 L308.452,38.368 L308.767,42.669 L309.604,43.693 L309.29,44.512 L307.928,43.693 L306.881,44 L306.881,45.537 L307.928,45.844 L307.72,47.483 L305.729,49.531 L307.3,49.736 L307.928,48.302 L309.081,47.995 L308.662,49.121 L307.928,50.145 L309.814,51.476 L309.814,52.5 L310.652,53.32 L310.652,54.139 L311.385,55.88 L310.966,57.518 L309.395,57.62 L308.452,58.337 L308.034,59.567 L309.081,60.796 L309.29,62.332 L308.557,63.151 L307.614,63.356 L306.567,65.301 L307.3,68.373 L307.928,69.807 L309.081,70.626 L317.983,70.626 L318.82,69.807 L318.611,67.657 L317.983,65.506 Z" id="XMLID_75_"></path>
                    <path d="M299.446,49.531 L298.712,49.019 L295.361,49.326 L296.514,50.452 L298.399,50.862 L298.922,51.988 L299.76,52.5 L299.446,49.531 Z" id="XMLID_74_"></path>
                    <path d="M368.988,32.941 L366.304,30.893 L364.554,30.278 L362.687,30.073 L339.119,30.073 L337.718,30.278 L336.434,29.458 L335.385,28.127 L334.801,26.898 L334.801,18.502 L334.568,14.712 L334.801,13.176 L335.385,11.64 L336.318,10.513 L337.834,10.104 L357.32,10.104 L358.954,10.718 L360.003,12.049 L360.353,13.585 L360.353,20.754 L362.454,21.062 L362.454,19.423 L361.987,16.76 L362.454,15.224 L361.871,13.381 L362.103,10.206 L360.936,10.206 L361.871,9.08 L360.353,8.568 L360.353,7.749 L359.07,8.568 L358.487,7.544 L358.371,5.598 L359.654,4.779 L360.936,5.086 L363.387,4.062 L364.904,4.779 L364.904,3.448 L365.721,4.165 L366.071,5.393 L368.055,5.189 L369.338,4.165 L369.455,3.345 L367.937,3.448 L367.004,3.755 L367.238,1.604 L363.504,0.17 L361.871,-0.24 L332.118,-0.24 L328.734,0.375 L327.217,1.092 L324.65,3.243 L323.25,5.905 L323.016,7.441 L323.016,14.917 L324.183,16.043 L325.583,15.531 L324.534,17.068 L323.25,17.375 L323.016,18.706 L323.016,32.224 L323.25,33.555 L323.95,34.887 L324.766,32.839 L326.051,30.893 L325.583,29.868 L325.467,28.537 L327.217,28.537 L328.5,25.567 L330.017,27.41 L329.084,28.23 L329.084,29.868 L331.535,29.868 L331.767,30.073 L331.184,33.351 L333.051,34.067 L334.218,34.989 L333.868,36.525 L329.667,37.037 L328.5,37.549 L326.867,37.037 L326.051,36.525 L326.051,37.344 L327.801,38.88 L330.6,39.699 L333.285,40.109 L356.97,40.109 L358.137,40.826 L359.07,42.157 L359.42,43.488 L359.42,56.801 L359.07,58.236 L358.253,59.26 L357.086,59.977 L355.454,60.181 L337.251,60.181 L335.735,59.772 L334.452,58.85 L333.868,57.518 L333.868,48.507 L323.016,48.507 L323.016,53.32 L323.25,53.32 L323.6,52.193 L324.183,53.012 L323.6,53.832 L323.483,55.265 L325.467,56.494 L325.701,55.675 L326.634,55.47 L326.517,53.832 L327.1,52.091 L328.734,51.476 L330.368,52.296 L330.834,53.934 L330.834,55.675 L331.184,57.313 L333.401,60.489 L335.151,62.332 L336.901,63.151 L338.768,63.151 L339.935,64.482 L340.869,63.97 L343.668,64.482 L345.419,64.482 L346.352,63.97 L347.869,64.789 L349.386,63.561 L351.486,63.151 L352.653,63.868 L353.003,65.301 L352.769,66.633 L351.252,67.452 L349.386,67.145 L346.703,67.452 L344.485,66.121 L342.735,66.633 L340.635,66.325 L337.601,67.247 L334.568,67.452 L333.517,68.783 L333.285,70.319 L335.385,70.626 L363.038,70.626 L364.788,70.114 L367.705,68.578 L369.921,66.325 L371.088,63.458 L371.088,37.344 L369.921,34.272 L368.988,32.941 Z" id="XMLID_73_"></path>
                    <path d="M323.6,61.513 L323.25,63.049 L323.483,64.789 L324.183,66.325 L324.65,64.892 L323.95,63.458 L323.6,61.513 Z" id="XMLID_72_"></path>
                    <path d="M327.801,68.988 L328.967,68.681 L327.801,67.964 L327.801,68.988 Z" id="XMLID_71_"></path>
                    <path d="M369.221,5.496 L368.171,6.11 L368.988,7.953 L368.754,12.049 L369.104,15.224 L367.238,18.706 L368.171,19.73 L370.038,21.062 L371.205,20.754 L371.205,8.056 L370.622,5.598 L369.221,5.496 Z" id="XMLID_70_"></path>
                    <path d="M413.259,-0.24 L412.068,1.399 L410.444,2.116 L411.201,0.068 L410.985,-0.24 L403.296,-0.24 L403.946,1.706 L405.029,2.116 L405.354,3.242 L407.086,2.935 L408.927,2.116 L410.659,3.242 L411.851,3.242 L412.609,3.754 L414.016,2.423 L416.29,1.911 L418.239,2.423 L420.297,2.423 L423.87,3.344 L425.062,2.935 L425.062,-0.24 L413.259,-0.24 L413.259,-0.24 Z M409.252,1.399 L408.927,1.092 L409.252,1.092 L409.252,1.399 L409.252,1.399 Z" id="XMLID_67_"></path>
                    <path d="M403.621,13.585 L402.105,13.483 L400.372,12.971 L399.181,12.049 L398.856,10.718 L399.397,9.899 L401.129,10.104 L400.48,8.568 L401.129,7.237 L400.263,6.725 L401.021,5.803 L400.263,4.779 L400.263,2.424 L401.887,1.912 L401.562,0.376 L399.938,-0.239 L398.314,-0.239 L397.122,2.117 L395.931,0.683 L394.631,0.273 L395.065,1.707 L394.631,3.243 L393.982,2.321 L393.765,0.581 L392.899,-0.239 L382.503,-0.239 L381.42,0.785 L380.554,-0.239 L378.822,0.581 L377.847,1.605 L377.305,2.629 L376.873,10.412 L377.198,10.719 L380.013,10.719 L381.205,10.002 L382.504,9.593 L384.454,10.719 L392.359,10.719 L394.633,10.924 L395.067,11.231 L395.067,70.627 L406.762,70.627 L406.762,56.802 L406.437,56.495 L404.704,57.007 L403.513,57.621 L402.213,57.826 L401.781,56.393 L403.296,53.013 L403.296,51.989 L404.92,50.965 L406.761,50.863 L406.22,49.122 L404.488,49.327 L402.647,48.508 L402.647,46.357 L401.347,45.538 L403.296,45.333 L404.162,47.484 L406.761,47.689 L406.761,17.887 L406.112,16.658 L406.112,15.225 L406.761,13.586 L406.761,12.255 L405.354,12.153 L403.621,13.585 L403.621,13.585 Z M387.27,9.899 L385.646,8.261 L384.997,7.237 L384.997,6.11 L386.188,5.905 L386.405,8.261 L388.137,8.773 L387.27,9.899 L387.27,9.899 Z M393.226,8.158 L391.818,7.749 L390.41,6.725 L389.001,7.237 L388.893,5.803 L387.81,5.086 L388.676,4.062 L388.676,3.243 L390.083,2.936 L391.599,3.857 L392.79,5.496 L393.44,7.237 L393.226,8.158 L393.226,8.158 Z M396.258,6.725 L396.258,5.905 L397.991,5.905 L396.258,6.725 L396.258,6.725 Z M401.131,47.688 L401.131,49.224 L399.723,48.814 L401.131,47.688 L401.131,47.688 Z M399.723,56.187 L398.857,56.494 L398.965,54.651 L399.94,54.651 L399.723,56.187 L399.723,56.187 Z M400.806,52.808 L400.264,51.476 L401.239,51.886 L400.806,52.808 L400.806,52.808 Z M404.271,16.555 L403.296,16.248 L401.672,16.248 L402.214,15.531 L403.838,15.224 L404.488,14.097 L404.704,14.097 L405.03,15.224 L404.271,16.555 L404.271,16.555 Z" id="XMLID_58_"></path>
                    <path d="M423.872,5.086 L422.789,4.574 L421.706,7.237 L421.706,7.749 L420.406,8.465 L418.349,8.67 L416.833,8.568 L415.425,9.387 L414.776,7.851 L413.476,6.929 L412.069,7.749 L410.986,7.749 L409.361,8.465 L408.17,9.387 L406.87,8.977 L406.113,8.261 L405.03,10.104 L406.762,10.616 L419.649,10.616 L420.84,9.694 L422.464,9.592 L424.196,9.797 L424.63,8.363 L424.522,6.52 L423.872,5.086 Z" id="XMLID_57_"></path>
                </g>
                <g id="Restaurant" transform="translate(53.000000, 86.000000)">
                    <path d="M8.67,18.923 L8.67,12.961 C8.67,12.238 8.257,11.8 7.585,11.8 L3.275,11.8 L3.275,18.923 L0.463,18.923 L0.463,0.858 L8.953,0.858 C10.63,0.858 11.456,1.71 11.456,3.439 L11.456,7.749 C11.456,9.323 10.681,10.252 9.314,10.458 C10.733,10.665 11.507,11.516 11.507,13.065 L11.507,18.923 L8.67,18.923 L8.67,18.923 Z M8.618,4.651 C8.618,4.006 8.333,3.696 7.766,3.696 L3.275,3.696 L3.275,9.322 L7.56,9.322 C8.23,9.322 8.618,8.883 8.618,8.186 L8.618,4.651 L8.618,4.651 Z" id="XMLID_53_"></path>
                    <path d="M14.758,18.923 L14.758,0.858 L24.823,0.858 L24.616,3.697 L17.57,3.697 L17.57,8.162 L24.228,8.162 L23.996,10.639 L17.57,10.639 L17.57,16.084 L24.9,16.084 L24.9,18.923 L14.758,18.923 L14.758,18.923 Z" id="XMLID_51_"></path>
                    <path d="M30.034,18.923 C28.382,18.923 27.557,18.071 27.557,16.342 L27.557,13.245 L30.034,13.245 L30.034,15.309 C30.034,15.955 30.319,16.264 30.886,16.264 L34.861,16.264 C35.428,16.264 35.738,15.955 35.738,15.309 L35.738,12.083 C35.738,11.464 35.428,11.128 34.861,11.128 L30.035,11.128 C28.383,11.128 27.558,10.276 27.558,8.548 L27.558,3.438 C27.558,1.709 28.383,0.857 30.035,0.857 L35.893,0.857 C37.571,0.857 38.396,1.709 38.396,3.438 L38.396,6.406 L35.919,6.406 L35.919,4.471 C35.919,3.825 35.634,3.516 35.067,3.516 L31.092,3.516 C30.524,3.516 30.24,3.825 30.24,4.471 L30.24,7.594 C30.24,8.213 30.524,8.549 31.092,8.549 L35.892,8.549 C37.57,8.549 38.395,9.401 38.395,11.129 L38.395,16.342 C38.395,18.071 37.57,18.923 35.892,18.923 L30.034,18.923 L30.034,18.923 Z" id="XMLID_49_"></path>
                    <path d="M44.975,18.923 L44.975,3.696 L40.562,3.696 L40.769,0.857 L52.279,0.857 L52.047,3.696 L47.84,3.696 L47.84,18.923 L44.975,18.923 L44.975,18.923 Z" id="XMLID_47_"></path>
                    <path d="M60.871,15.491 L55.606,15.491 L54.781,18.923 L51.813,18.923 L56.458,0.858 L60.2,0.858 L64.897,18.923 L61.723,18.923 L60.871,15.491 L60.871,15.491 Z M56.071,13.375 L60.406,13.375 L58.238,4.781 L56.071,13.375 L56.071,13.375 Z" id="XMLID_44_"></path>
                    <path d="M69.617,18.923 C67.965,18.923 67.14,18.071 67.14,16.342 L67.14,0.858 L69.952,0.858 L69.952,15.155 C69.952,15.774 70.237,16.084 70.83,16.084 L74.159,16.084 C74.753,16.084 75.037,15.775 75.037,15.155 L75.037,0.858 L77.876,0.858 L77.876,16.342 C77.876,18.071 77.024,18.923 75.373,18.923 L69.617,18.923 L69.617,18.923 Z" id="XMLID_42_"></path>
                    <path d="M89.358,18.923 L89.358,12.961 C89.358,12.238 88.945,11.8 88.273,11.8 L83.963,11.8 L83.963,18.923 L81.151,18.923 L81.151,0.858 L89.641,0.858 C91.318,0.858 92.144,1.71 92.144,3.439 L92.144,7.749 C92.144,9.323 91.369,10.252 90.002,10.458 C91.421,10.665 92.195,11.516 92.195,13.065 L92.195,18.923 L89.358,18.923 L89.358,18.923 Z M89.307,4.651 C89.307,4.006 89.022,3.696 88.455,3.696 L83.964,3.696 L83.964,9.322 L88.249,9.322 C88.919,9.322 89.307,8.883 89.307,8.186 L89.307,4.651 L89.307,4.651 Z" id="XMLID_39_"></path>
                    <path d="M103.395,15.491 L98.13,15.491 L97.305,18.923 L94.337,18.923 L98.982,0.858 L102.724,0.858 L107.421,18.923 L104.247,18.923 L103.395,15.491 L103.395,15.491 Z M98.595,13.375 L102.93,13.375 L100.762,4.781 L98.595,13.375 L98.595,13.375 Z" id="XMLID_36_"></path>
                    <path d="M118.723,18.923 L118.723,15.465 L112.452,5.839 L112.452,18.923 L109.665,18.923 L109.665,0.858 L112.504,0.858 L118.724,10.432 L118.724,0.858 L121.511,0.858 L121.511,18.923 L118.723,18.923 L118.723,18.923 Z" id="XMLID_34_"></path>
                    <path d="M128.191,18.923 L128.191,3.696 L123.778,3.696 L123.985,0.857 L135.495,0.857 L135.263,3.696 L131.056,3.696 L131.056,18.923 L128.191,18.923 L128.191,18.923 Z" id="XMLID_32_"></path>
                    <path d="M145.247,22.02 L145.247,0.084 L147.286,0.084 L147.286,22.02 L145.247,22.02 L145.247,22.02 Z" id="XMLID_30_"></path>
                    <path d="M160.987,13.065 L160.987,18.923 L158.148,18.923 L158.148,0.858 L166.406,0.858 C168.084,0.858 168.909,1.71 168.909,3.439 L168.909,10.484 C168.909,12.213 168.084,13.065 166.406,13.065 L160.987,13.065 L160.987,13.065 Z M166.123,4.651 C166.123,4.032 165.838,3.696 165.271,3.696 L160.986,3.696 L160.986,10.354 L165.271,10.354 C165.838,10.354 166.123,10.045 166.123,9.425 L166.123,4.651 L166.123,4.651 Z" id="XMLID_27_"></path>
                    <path d="M171.901,18.923 L171.901,0.858 L181.966,0.858 L181.759,3.697 L174.713,3.697 L174.713,9.039 L181.243,9.039 L180.985,11.542 L174.714,11.542 L174.714,18.923 L171.901,18.923 L171.901,18.923 Z" id="XMLID_25_"></path>
                    <path d="M191.487,15.491 L186.222,15.491 L185.397,18.923 L182.429,18.923 L187.074,0.858 L190.816,0.858 L195.513,18.923 L192.339,18.923 L191.487,15.491 L191.487,15.491 Z M186.687,13.375 L191.022,13.375 L188.854,4.781 L186.687,13.375 L186.687,13.375 Z" id="XMLID_22_"></path>
                    <path d="M197.808,18.923 L197.808,0.858 L207.873,0.858 L207.666,3.697 L200.62,3.697 L200.62,9.039 L207.15,9.039 L206.892,11.542 L200.621,11.542 L200.621,18.923 L197.808,18.923 L197.808,18.923 Z" id="XMLID_20_"></path>
                    <path d="M210.633,18.923 L210.633,0.858 L220.698,0.858 L220.491,3.697 L213.445,3.697 L213.445,9.039 L219.975,9.039 L219.717,11.542 L213.446,11.542 L213.446,18.923 L210.633,18.923 L210.633,18.923 Z" id="XMLID_18_"></path>
                    <path d="M223.457,18.923 L223.457,0.858 L233.522,0.858 L233.315,3.697 L226.269,3.697 L226.269,8.162 L232.927,8.162 L232.695,10.639 L226.269,10.639 L226.269,16.084 L233.599,16.084 L233.599,18.923 L223.457,18.923 L223.457,18.923 Z" id="XMLID_16_"></path>
                    <path d="M245.545,18.923 L245.545,15.465 L239.274,5.839 L239.274,18.923 L236.487,18.923 L236.487,0.858 L239.326,0.858 L245.546,10.432 L245.546,0.858 L248.333,0.858 L248.333,18.923 L245.545,18.923 L245.545,18.923 Z" id="XMLID_14_"></path>
                    <path d="M260.124,18.923 L260.124,10.484 L254.498,10.484 L254.498,18.923 L251.634,18.923 L251.634,0.858 L254.498,0.858 L254.498,7.8 L260.124,7.8 L260.124,0.858 L262.989,0.858 L262.989,18.923 L260.124,18.923 L260.124,18.923 Z" id="XMLID_12_"></path>
                    <path d="M268.742,18.923 C267.09,18.923 266.265,18.071 266.265,16.342 L266.265,3.439 C266.265,1.71 267.09,0.858 268.742,0.858 L275.013,0.858 C276.69,0.858 277.516,1.71 277.516,3.439 L277.516,16.342 C277.516,18.071 276.69,18.923 275.013,18.923 L268.742,18.923 L268.742,18.923 Z M274.678,4.651 C274.678,4.006 274.393,3.696 273.826,3.696 L269.955,3.696 C269.362,3.696 269.078,4.006 269.078,4.651 L269.078,15.155 C269.078,15.774 269.362,16.084 269.955,16.084 L273.826,16.084 C274.393,16.084 274.678,15.775 274.678,15.155 L274.678,4.651 L274.678,4.651 Z" id="XMLID_9_"></path>
                    <path d="M280.766,18.923 L280.766,0.858 L290.831,0.858 L290.624,3.697 L283.578,3.697 L283.578,9.039 L290.108,9.039 L289.85,11.542 L283.579,11.542 L283.579,18.923 L280.766,18.923 L280.766,18.923 Z" id="XMLID_7_"></path>
                    <path d="M293.591,18.923 L293.591,0.858 L303.656,0.858 L303.449,3.697 L296.403,3.697 L296.403,8.162 L303.061,8.162 L302.829,10.639 L296.403,10.639 L296.403,16.084 L303.733,16.084 L303.733,18.923 L293.591,18.923 L293.591,18.923 Z" id="XMLID_5_"></path>
                    <path d="M315.68,18.923 L315.68,15.465 L309.409,5.839 L309.409,18.923 L306.622,18.923 L306.622,0.858 L309.461,0.858 L315.681,10.432 L315.681,0.858 L318.468,0.858 L318.468,18.923 L315.68,18.923 L315.68,18.923 Z" id="XMLID_3_"></path>
                </g>
            </g>
        </g>
    </g>
</svg>