<?xml version="1.0" encoding="UTF-8" standalone="no"?>
<svg width="427px" height="103px" viewBox="0 0 427 103" version="1.1" xmlns="http://www.w3.org/2000/svg" xmlns:xlink="http://www.w3.org/1999/xlink" xmlns:sketch="http://www.bohemiancoding.com/sketch/ns">
    <title>logo_white</title>
    <description>Created with Sketch (http://www.bohemiancoding.com/sketch)</description>
    <defs></defs>
    <g id="Page-1" stroke="none" stroke-width="1" fill="none" fill-rule="evenodd" sketch:type="MSPage">
        <g id="logo" sketch:type="MSLayerGroup" transform="translate(1.000000, 1.000000)" fill="#FFFFFF">
            <g id="XMLID_1_" sketch:type="MSShapeGroup">
                <g id="XMLID_2_">
                    <path d="M43.327,58.238 L42.019,57.419 L42.019,54.962 L39.705,49.432 L37.491,43.8 L32.863,32.74 L30.549,27.108 L29.443,24.343 L29.745,23.319 L33.568,18.301 L39.303,10.825 L44.032,4.681 L46.949,0.892 L46.547,-0.029 L44.635,0.176 L43.026,-0.132 L41.718,1.712 L40.511,2.121 L40.913,0.38 L39.304,-0.132 L35.18,-0.132 L31.356,4.476 L27.232,9.596 L26.528,10.825 L26.226,16.662 L25.723,17.174 L25.723,14.819 L24.717,13.18 L21.699,16.457 L18.178,21.68 L16.569,23.216 L11.639,29.462 L10.733,27.926 L10.733,6.831 L9.828,6.011 L9.526,4.578 L10.632,3.861 L10.632,1.711 L10.029,-0.133 L-0.134,-0.133 L-0.134,70.733 L10.731,70.733 L10.731,48.101 L16.767,40.01 L20.188,36.017 L21.294,36.631 L25.922,47.896 L29.443,56.294 L31.757,61.926 L34.071,67.455 L35.48,70.425 L37.089,70.732 L41.214,70.732 L42.42,70.323 L43.527,70.732 L47.752,70.732 L48.054,69.606 L43.929,59.877 L43.327,58.238 L43.327,58.238 Z M37.391,4.27 L38.598,3.553 L39.202,4.884 L38.598,6.01 L36.787,6.01 L36.485,5.498 L37.391,4.27 L37.391,4.27 Z M9.525,1.71 L9.827,1.71 L10.028,3.041 L9.324,3.348 L9.525,1.71 L9.525,1.71 Z M2.18,34.481 L3.489,34.071 L4.595,34.481 L2.18,34.993 L2.18,34.481 L2.18,34.481 Z M3.488,32.945 L4.594,32.125 L5.197,32.74 L3.488,32.945 L3.488,32.945 Z M5.399,37.962 L5.399,39.805 L4.293,39.805 L3.79,38.986 L4.092,37.348 L5.399,37.962 L5.399,37.962 Z M4.092,45.13 L3.489,44.106 L4.696,42.365 L5.4,42.98 L4.897,44.106 L5.903,44.925 L4.092,45.13 L4.092,45.13 Z M6.104,38.986 L6.104,37.962 L6.004,36.631 L6.909,35.812 L7.513,37.245 L7.01,38.986 L6.104,38.986 L6.104,38.986 Z M5.902,23.523 L6.707,23.011 L7.01,24.24 L6.104,24.854 L5.902,23.523 L5.902,23.523 Z M7.814,20.348 L5.399,22.806 L5.097,24.137 L3.789,27.312 L3.487,27.004 L3.889,25.468 L3.487,23.83 L3.487,20.144 L3.99,18.608 L3.789,16.15 L5.097,15.331 L5.6,14 L6.405,13.692 L6.103,15.536 L6.908,16.867 L7.21,16.867 L7.21,14.204 L7.814,14.921 L7.814,20.348 L7.814,20.348 Z M8.519,35.3 L8.821,34.481 L9.525,35.812 L8.519,35.3 L8.519,35.3 Z M31.657,39.703 L30.45,39.805 L28.941,40.317 L29.947,41.649 L30.047,42.98 L29.745,44.413 L28.94,45.437 L28.437,44.925 L28.135,41.444 L27.129,40.932 L25.72,38.986 L25.016,36.119 L23.91,35.3 L23.407,34.276 L23.91,33.149 L21.294,33.149 L19.986,33.969 L18.678,33.047 L17.37,32.637 L17.672,33.661 L16.867,34.481 L15.458,34.071 L14.352,32.74 L14.251,31.306 L16.566,28.337 L16.868,27.517 L18.176,26.801 L18.679,25.469 L20.288,25.469 L21.495,23.831 L22.099,22.5 L23.105,23.012 L23.105,24.343 L25.519,26.493 L26.525,25.981 L27.632,28.541 L29.443,28.849 L30.65,29.463 L31.253,30.487 L29.945,30.794 L28.436,30.487 L28.939,31.818 L30.247,32.945 L31.253,34.993 L31.253,37.143 L31.756,37.962 L31.657,39.703 L31.657,39.703 Z M45.137,64.588 L43.829,65.612 L43.628,67.148 L42.522,68.275 L41.214,67.558 L39.905,68.07 L38.296,66.227 L38.296,62.745 L37.793,62.233 L36.988,62.745 L37.591,61.414 L38.597,61.107 L38.295,60.287 L39.1,59.263 L40.911,57.625 L41.214,58.751 L40.911,59.878 L40.911,61.107 L41.214,62.233 L41.616,62.233 L41.616,61.107 L43.83,63.769 L43.83,62.95 L44.836,63.462 L45.137,64.588 L45.137,64.588 Z" id="XMLID_3_"></path>
                    <path d="M97.061,2.943 L95.94,1.814 L93.251,0.276 L91.682,-0.134 L59.742,-0.134 L56.269,0.379 L53.691,2.225 L51.786,4.789 L50.89,7.763 L50.89,61.093 L51.226,64.374 L51.786,65.81 L53.691,68.271 L55.035,69.297 L56.493,70.014 L58.286,70.425 L60.639,70.219 L77.001,70.732 L78.234,69.605 L79.018,67.656 L78.458,66.937 L77.226,67.553 L72.855,68.066 L70.837,66.937 L69.381,67.45 L67.923,67.553 L66.915,66.425 L66.802,64.989 L67.7,63.759 L70.949,62.426 L72.294,62.938 L75.656,63.041 L77.226,62.733 L80.139,62.938 L83.052,62.118 L85.406,60.271 L84.622,59.554 L65.57,59.554 L64.001,58.836 L62.993,57.4 L62.657,52.888 L62.657,48.273 L60.639,46.939 L62.657,46.631 L60.527,44.991 L59.518,43.76 L58.734,44.478 L58.622,46.222 L56.829,46.222 L55.148,44.58 L53.354,44.58 L53.131,42.94 L54.588,42.427 L54.588,40.273 L53.915,39.247 L54.475,36.992 L53.915,35.556 L54.252,34.428 L54.252,31.761 L53.915,29.607 L54.588,26.223 L54.812,22.736 L54.252,21.916 L54.252,19.454 L53.915,17.608 L54.812,11.455 L54.812,8.276 L55.596,7.147 L56.941,6.02 L58.286,5.609 L58.958,3.763 L60.078,3.763 L61.536,3.25 L62.993,3.763 L62.096,5.096 L63.329,5.609 L62.432,6.122 L60.976,7.455 L59.295,7.045 L58.286,8.071 L58.286,16.07 L58.622,17.916 L59.518,18.736 L59.518,20.07 L60.078,21.096 L59.742,22.941 L58.286,25.607 L59.742,25.915 L59.742,27.453 L61.423,28.377 L62.096,29.607 L60.976,30.735 L60.976,32.274 L62.208,31.146 L62.88,29.607 L62.88,13.095 L63.777,11.762 L65.346,10.942 L84.286,10.942 L85.631,11.557 L86.639,12.583 L87.087,13.917 L87.087,38.427 L87.423,39.76 L87.199,41.401 L87.199,53.81 L86.303,59.964 L87.087,60.58 L87.984,59.862 L88.095,58.425 L89.553,57.605 L90.113,56.067 L89.553,54.118 L90.449,50.734 L91.01,49.914 L91.01,46.426 L90.225,44.684 L90.113,42.94 L88.32,39.247 L89.776,39.247 L90.674,41.607 L93.027,42.222 L93.475,43.658 L94.483,44.068 L95.94,45.401 L94.372,47.144 L93.587,46.939 L93.363,48.273 L94.708,48.786 L95.38,49.914 L94.819,51.247 L94.819,58.22 L94.483,59.554 L96.277,58.938 L97.061,60.58 L96.5,61.093 L95.38,63.759 L94.147,63.553 L92.13,65.604 L90.674,65.399 L91.234,62.22 L90.113,62.938 L88.095,66.425 L86.863,66.937 L85.406,68.066 L85.406,70.219 L88.095,70.732 L91.57,70.425 L94.372,69.501 L95.604,68.784 L97.398,66.937 L98.518,64.374 L99.079,61.093 L99.079,8.378 L98.63,5.507 L97.061,2.943 Z" id="XMLID_17_"></path>
                    <path d="M144.684,31.055 L144.364,36.679 L142.018,33.816 L138.5,28.6 L131.463,18.374 L127.092,11.83 L122.72,5.388 L119.202,0.275 L117.603,-0.134 L116.111,0.275 L115.578,0.888 L115.045,-0.033 L108.115,-0.033 L107.582,0.888 L107.582,70.22 L108.115,70.731 L118.03,70.731 L118.669,69.607 L118.669,28.908 L118.882,20.42 L119.309,20.113 L122.827,25.329 L126.451,30.544 L132.635,39.646 L137.006,46.19 L140.631,51.406 L145.321,58.564 L146.281,58.768 L146.92,58.053 L146.92,56.928 L145.748,54.986 L145.748,53.452 L144.682,52.327 L145.002,50.486 L142.976,50.281 L142.976,48.952 L142.231,48.134 L142.231,47.316 L140.205,45.679 L139.566,44.248 L139.352,42.714 L140.205,41.487 L140.205,43.327 L141.058,44.759 L142.444,44.145 L141.805,43.021 L142.444,41.487 L144.15,42.816 L145.536,42.305 L147.135,42.305 L148.521,40.669 L149.374,41.18 L149.374,38.009 L150.547,36.68 L151.08,39.646 L150.76,41.18 L151.613,41.691 L152.999,41.486 L153.319,42.815 L153.319,44.349 L153.852,46.292 L153.319,47.826 L154.385,48.95 L153.319,49.973 L154.066,50.996 L153.213,51.814 L153.533,52.939 L154.386,52.12 L155.452,54.473 L155.772,52.939 L155.772,-0.032 L144.685,-0.032 L144.685,31.055 L144.684,31.055 Z M111.101,6.308 L111.421,4.467 L112.487,6.308 L111.101,6.308 L111.101,6.308 Z M115.685,6.922 L114.192,6.103 L113.659,5.285 L112.487,4.262 L113.34,2.933 L114.833,4.16 L116.113,5.591 L115.685,6.922 L115.685,6.922 Z M117.498,7.434 L117.285,7.126 L119.204,6.308 L119.524,7.024 L117.498,7.434 L117.498,7.434 Z" id="XMLID_18_"></path>
                    <path d="M148.309,67.767 L147.456,64.597 L146.07,61.632 L144.684,62.756 L144.684,70.426 L145.217,70.732 L150.548,70.732 L149.908,68.585 L148.309,67.767 Z" id="XMLID_23_"></path>
                    <path d="M152.147,57.643 L153.32,60.916 L152.573,62.45 L153.533,65.824 L154.705,66.948 L153.853,69.096 L153.32,67.256 L152.573,69.096 L153,70.426 L154.386,70.63 L155.772,70.426 L155.772,67.767 L155.452,66.437 L154.386,65.415 L154.386,64.085 L155.772,63.267 L155.772,56.927 L153.853,56.314 L152.147,57.643 Z" id="XMLID_24_"></path>
                    <path d="M188.188,13.691 L186.672,13.589 L184.939,13.077 L183.748,12.155 L183.424,10.824 L183.965,10.005 L185.697,10.21 L185.048,8.674 L185.697,7.343 L184.831,6.831 L185.589,5.909 L184.831,4.885 L184.831,2.529 L186.456,2.017 L186.131,0.481 L184.506,-0.134 L182.882,-0.134 L181.69,2.222 L180.5,0.788 L179.2,0.378 L179.634,1.812 L179.2,3.348 L178.551,2.426 L178.334,0.686 L177.468,-0.134 L167.071,-0.134 L165.988,0.89 L165.122,-0.134 L163.39,0.686 L162.415,1.71 L161.873,2.734 L161.441,10.517 L161.766,10.824 L164.581,10.824 L165.773,10.107 L167.071,9.698 L169.021,10.824 L176.926,10.824 L179.2,11.029 L179.634,11.336 L179.634,70.732 L191.329,70.732 L191.329,56.907 L191.004,56.6 L189.271,57.112 L188.08,57.726 L186.78,57.931 L186.348,56.498 L187.863,53.118 L187.863,52.094 L189.487,51.07 L191.329,50.968 L190.787,49.227 L189.055,49.432 L187.214,48.613 L187.214,46.462 L185.914,45.643 L187.863,45.437 L188.729,47.589 L191.329,47.794 L191.329,17.992 L190.679,16.763 L190.679,15.33 L191.329,13.691 L191.329,12.36 L189.921,12.258 L188.188,13.691 Z" id="XMLID_25_"></path>
                    <path d="M196.635,1.505 L195.011,2.222 L195.768,0.174 L195.552,-0.134 L187.863,-0.134 L188.513,1.812 L189.596,2.222 L189.921,3.348 L191.653,3.041 L193.494,2.222 L195.227,3.348 L196.418,3.348 L197.177,3.86 L198.584,2.529 L200.858,2.017 L202.807,2.529 L204.865,2.529 L208.438,3.45 L209.63,3.041 L209.63,-0.134 L197.826,-0.134 L196.635,1.505 Z" id="XMLID_26_"></path>
                    <path d="M208.438,5.192 L207.355,4.679 L206.272,7.343 L206.272,7.855 L204.973,8.571 L202.916,8.776 L201.399,8.674 L199.992,9.493 L199.342,7.957 L198.043,7.035 L196.635,7.855 L195.552,7.855 L193.928,8.571 L192.736,9.493 L191.437,9.083 L190.679,8.367 L189.596,10.21 L191.329,10.722 L204.215,10.722 L205.406,9.8 L207.031,9.698 L208.763,9.903 L209.196,8.469 L209.089,6.626 L208.438,5.192 Z" id="XMLID_27_"></path>
                    <path d="M260.512,40.317 L257.65,38.269 L256.162,37.86 L254.559,37.962 L253.759,38.474 L254.216,37.553 L257.307,36.631 L258.795,35.914 L261.427,33.661 L262.458,32.228 L263.03,30.692 L263.259,29.156 L263.259,7.547 L263.03,6.011 L261.656,3.349 L259.138,1.199 L257.65,0.482 L254.331,-0.133 L215.299,-0.133 L215.299,70.733 L220.679,70.733 L222.282,70.324 L222.666,70.422 L222.661,70.426 L223.275,70.733 L223.275,70.578 L223.884,70.733 L226.861,70.733 L227.433,70.426 L227.433,69.228 L227.447,69.216 L228.286,69.915 L228.594,70.733 L228.389,67.87 L227.673,67.256 L227.433,67.363 L227.433,43.289 L227.776,42.982 L242.77,42.982 L247.464,42.777 L248.493,41.651 L248.951,40.217 L248.951,38.783 L247.463,37.452 L247.463,36.326 L248.378,37.452 L250.095,36.633 L251.354,36.326 L252.27,34.995 L252.842,35.507 L252.728,37.247 L251.926,40.319 L251.354,38.271 L250.897,38.271 L250.897,41.446 L249.523,42.265 L249.637,43.699 L250.668,44.723 L251.24,45.951 L251.24,57.933 L251.583,61.415 L252.842,60.903 L252.728,62.439 L251.354,63.258 L251.354,70.734 L263.488,70.734 L263.488,45.951 L262.686,43.187 L260.512,40.317 L260.512,40.317 Z M224.227,35.607 L224.571,35.607 L224.571,35.812 L224.227,35.812 L224.227,35.607 L224.227,35.607 Z M221.595,40.932 L221.824,38.474 L221.595,35.812 L223.655,36.938 L224.572,37.143 L224.8,37.962 L226.861,37.45 L227.089,38.577 L225.716,41.649 L223.082,41.444 L221.709,42.365 L220.335,42.263 L221.595,40.932 L221.595,40.932 Z M223.655,53.63 L222.167,54.962 L221.595,56.6 L220.336,56.293 L219.764,54.962 L220.221,53.733 L222.167,51.07 L221.595,50.251 L221.595,48.306 L220.909,46.974 L222.054,46.36 L222.969,43.186 L223.655,42.776 L223.083,46.258 L223.312,48.101 L224.227,49.637 L223.082,49.944 L225.371,51.582 L223.655,53.63 L223.655,53.63 Z M258.795,27.926 L256.964,29.667 L256.735,29.462 L256.964,28.233 L258.223,27.619 L258.795,27.926 L258.795,27.926 Z M256.964,15.535 L257.307,15.33 L257.307,15.842 L256.964,15.535 L256.964,15.535 Z M245.975,39.601 L245.403,39.601 L244.717,37.962 L245.06,36.938 L245.976,37.143 L245.976,39.601 L245.975,39.601 Z M248.379,39.498 L247.464,39.805 L247.12,38.269 L248.379,39.498 L248.379,39.498 Z M250.782,30.179 L250.21,31.305 L249.065,32.432 L247.806,32.944 L227.546,32.944 L227.546,11.029 L248.378,11.029 L249.866,11.643 L250.782,12.872 L250.782,30.179 L250.782,30.179 Z M252.27,10.824 L250.096,8.367 L248.608,8.879 L246.547,8.059 L245.059,5.704 L244.945,6.626 L243.571,7.547 L241.74,7.445 L240.023,6.831 L238.42,5.807 L238.534,4.783 L239.679,4.168 L241.282,4.271 L242.999,5.192 L245.402,3.861 L247.234,3.451 L249.294,3.349 L251.354,3.554 L251.011,6.011 L251.354,6.216 L253.758,3.656 L255.475,4.168 L256.734,6.933 L257.879,8.162 L257.307,11.336 L257.307,12.975 L256.735,14.203 L255.82,13.999 L254.446,12.463 L254.332,10.21 L252.27,10.824 L252.27,10.824 Z M255.819,42.263 L257.193,42.365 L254.56,44.106 L254.56,43.287 L253.76,41.649 L255.819,42.263 L255.819,42.263 Z M254.559,45.949 L257.65,44.413 L258.222,46.973 L257.879,48.509 L256.963,49.329 L255.475,48.612 L254.559,45.949 L254.559,45.949 Z" id="XMLID_28_"></path>
                    <path d="M267.269,66.745 L266.954,68.074 L266.323,70.221 L267.374,70.732 L268.32,69.608 L268.636,67.664 L268.005,65.926 L267.269,66.745 Z" id="XMLID_41_"></path>
                    <path d="M296.723,56.293 L295.676,55.064 L294.837,52.914 L293.581,53.835 L291.695,53.63 L291.067,52.914 L294.628,52.606 L294.942,51.07 L294.837,49.739 L293.476,49.125 L291.067,49.125 L291.905,52.094 L290.544,51.275 L289.182,49.125 L286.668,49.125 L286.668,51.275 L284.47,48.306 L282.479,49.534 L283.736,50.456 L284.26,51.582 L285.098,52.606 L284.364,54.04 L281.014,55.576 L281.538,56.088 L281.538,58.443 L281.014,58.955 L279.967,59.365 L279.861,60.595 L278.396,60.697 L277.139,61.414 L277.139,63.564 L275.777,64.895 L275.777,66.227 L274.207,68.582 L271.797,67.353 L270.855,69.401 L270.646,70.22 L272.844,70.732 L279.338,70.732 L279.757,70.323 L280.281,69.196 L282.375,59.467 L283.422,57.419 L286.668,57.214 L298.712,57.214 L297.875,56.395 L296.723,56.293 Z" id="XMLID_42_"></path>
                    <path d="M317.982,65.612 L317.982,61.619 L313.27,43.799 L312.85,42.263 L311.803,40.113 L311.803,38.474 L310.651,33.969 L309.604,33.457 L310.128,32.227 L308.661,26.39 L307.09,20.451 L305.101,13.077 L301.959,1.198 L301.121,-0.134 L286.982,-0.134 L286.459,0.686 L284.888,6.626 L282.899,13.896 L281.328,19.836 L278.604,30.179 L277.033,36.017 L276.091,40.625 L275.568,42.263 L275.777,43.799 L274.311,47.077 L273.054,51.275 L273.054,53.426 L272.216,54.654 L271.588,56.805 L271.379,58.648 L272.216,58.955 L273.368,57.112 L274.939,57.419 L275.254,56.19 L277.453,55.576 L275.777,53.426 L276.929,49.432 L277.662,48.613 L277.453,46.974 L279.757,45.335 L279.024,44.311 L279.861,43.594 L279.861,40.113 L280.281,38.781 L281.538,38.269 L281.746,39.293 L283.736,39.805 L283.736,41.956 L282.899,42.468 L282.899,43.594 L283.736,44.311 L284.574,46.872 L285.621,46.461 L287.088,40.625 L289.287,31.817 L291.277,24.444 L293.266,17.173 L293.79,16.149 L294.733,19.324 L297.455,29.564 L299.026,35.607 L300.597,41.444 L301.436,42.468 L301.436,44.209 L302.168,47.179 L302.273,48.92 L301.016,49.432 L300.283,50.661 L300.912,51.787 L302.483,53.118 L301.854,54.962 L301.75,55.986 L302.377,56.6 L304.158,57.419 L305.519,60.083 L306.357,59.16 L306.043,58.238 L307.09,57.419 L306.253,56.395 L305.833,53.016 L305.415,51.275 L304.368,49.944 L306.567,47.794 L305.625,46.77 L305.519,44.106 L306.043,42.98 L306.043,40.625 L305.729,39.805 L306.043,38.781 L304.682,37.655 L303.739,37.86 L304.158,36.119 L305.519,35.607 L306.357,36.938 L307.928,37.143 L308.451,38.474 L308.766,42.775 L309.604,43.799 L309.29,44.618 L307.928,43.799 L306.881,44.106 L306.881,45.642 L307.928,45.949 L307.719,47.589 L305.729,49.637 L307.3,49.842 L307.928,48.408 L309.08,48.101 L308.661,49.227 L307.928,50.251 L309.814,51.582 L309.814,52.606 L310.651,53.426 L310.651,54.245 L311.385,55.986 L310.965,57.624 L309.394,57.726 L308.451,58.443 L308.033,59.672 L309.08,60.902 L309.29,62.438 L308.557,63.257 L307.614,63.462 L306.567,65.407 L307.3,68.479 L307.928,69.913 L309.08,70.732 L317.982,70.732 L318.82,69.913 L318.61,67.763 L317.982,65.612 Z" id="XMLID_43_"></path>
                    <path d="M299.445,49.637 L298.712,49.125 L295.361,49.432 L296.513,50.558 L298.398,50.968 L298.922,52.094 L299.759,52.606 L299.445,49.637 Z" id="XMLID_44_"></path>
                    <path d="M368.987,33.047 L366.304,30.998 L364.554,30.384 L362.686,30.179 L339.118,30.179 L337.718,30.384 L336.434,29.564 L335.384,28.233 L334.801,27.004 L334.801,18.607 L334.567,14.818 L334.801,13.282 L335.384,11.746 L336.317,10.619 L337.834,10.21 L357.32,10.21 L358.954,10.824 L360.003,12.155 L360.353,13.691 L360.353,20.86 L362.454,21.168 L362.454,19.529 L361.987,16.866 L362.454,15.33 L361.87,13.487 L362.103,10.312 L360.936,10.312 L361.87,9.186 L360.353,8.674 L360.353,7.855 L359.07,8.674 L358.486,7.65 L358.37,5.704 L359.653,4.885 L360.936,5.192 L363.387,4.167 L364.904,4.885 L364.904,3.553 L365.721,4.27 L366.07,5.499 L368.054,5.295 L369.337,4.27 L369.454,3.45 L367.937,3.553 L367.004,3.86 L367.237,1.71 L363.503,0.276 L361.87,-0.134 L332.117,-0.134 L328.733,0.481 L327.217,1.198 L324.65,3.348 L323.249,6.011 L323.016,7.547 L323.016,15.023 L324.183,16.149 L325.583,15.637 L324.533,17.173 L323.249,17.48 L323.016,18.812 L323.016,32.329 L323.249,33.661 L323.95,34.993 L324.766,32.945 L326.05,30.998 L325.583,29.974 L325.467,28.643 L327.217,28.643 L328.5,25.673 L330.016,27.516 L329.083,28.336 L329.083,29.974 L331.534,29.974 L331.767,30.179 L331.183,33.457 L333.051,34.173 L334.218,35.095 L333.868,36.631 L329.667,37.143 L328.5,37.655 L326.867,37.143 L326.05,36.631 L326.05,37.45 L327.8,38.986 L330.6,39.805 L333.284,40.215 L356.97,40.215 L358.137,40.932 L359.07,42.263 L359.419,43.594 L359.419,56.907 L359.07,58.341 L358.253,59.365 L357.086,60.083 L355.453,60.286 L337.251,60.286 L335.734,59.877 L334.451,58.955 L333.868,57.624 L333.868,48.613 L323.016,48.613 L323.016,53.426 L323.249,53.426 L323.599,52.299 L324.183,53.118 L323.599,53.938 L323.483,55.371 L325.467,56.6 L325.7,55.781 L326.633,55.576 L326.516,53.938 L327.099,52.197 L328.733,51.582 L330.367,52.402 L330.833,54.04 L330.833,55.781 L331.183,57.419 L333.401,60.595 L335.151,62.438 L336.901,63.257 L338.767,63.257 L339.934,64.588 L340.868,64.076 L343.668,64.588 L345.418,64.588 L346.351,64.076 L347.869,64.895 L349.386,63.667 L351.486,63.257 L352.652,63.974 L353.002,65.407 L352.769,66.739 L351.252,67.558 L349.386,67.251 L346.702,67.558 L344.485,66.227 L342.735,66.739 L340.635,66.431 L337.6,67.353 L334.567,67.558 L333.517,68.889 L333.284,70.425 L335.384,70.732 L363.037,70.732 L364.787,70.22 L367.704,68.684 L369.921,66.431 L371.087,63.564 L371.087,37.45 L369.921,34.378 L368.987,33.047 Z" id="XMLID_45_"></path>
                    <path d="M323.599,61.619 L323.249,63.155 L323.483,64.895 L324.183,66.431 L324.65,64.998 L323.95,63.564 L323.599,61.619 Z" id="XMLID_46_"></path>
                    <path d="M327.8,69.094 L328.967,68.787 L327.8,68.07 L327.8,69.094 Z" id="XMLID_47_"></path>
                    <path d="M369.221,5.602 L368.17,6.216 L368.987,8.059 L368.754,12.155 L369.104,15.33 L367.237,18.812 L368.17,19.836 L370.038,21.168 L371.205,20.86 L371.205,8.162 L370.621,5.704 L369.221,5.602 Z" id="XMLID_48_"></path>
                    <path d="M413.259,-0.134 L412.068,1.505 L410.444,2.222 L411.201,0.174 L410.985,-0.134 L403.296,-0.134 L403.946,1.812 L405.029,2.222 L405.354,3.348 L407.086,3.041 L408.927,2.222 L410.659,3.348 L411.851,3.348 L412.609,3.86 L414.016,2.529 L416.29,2.017 L418.239,2.529 L420.297,2.529 L423.87,3.45 L425.062,3.041 L425.062,-0.134 L413.259,-0.134 L413.259,-0.134 Z M409.252,1.505 L408.927,1.198 L409.252,1.198 L409.252,1.505 L409.252,1.505 Z" id="XMLID_49_"></path>
                    <path d="M403.621,13.691 L402.105,13.589 L400.372,13.077 L399.181,12.155 L398.856,10.824 L399.397,10.005 L401.129,10.21 L400.48,8.674 L401.129,7.343 L400.263,6.831 L401.021,5.909 L400.263,4.885 L400.263,2.53 L401.887,2.018 L401.562,0.482 L399.938,-0.133 L398.314,-0.133 L397.122,2.223 L395.931,0.789 L394.631,0.379 L395.065,1.813 L394.631,3.349 L393.982,2.427 L393.765,0.687 L392.899,-0.133 L382.503,-0.133 L381.42,0.891 L380.554,-0.133 L378.822,0.687 L377.847,1.711 L377.305,2.735 L376.873,10.518 L377.198,10.825 L380.013,10.825 L381.205,10.108 L382.504,9.699 L384.454,10.825 L392.359,10.825 L394.633,11.03 L395.067,11.337 L395.067,70.733 L406.762,70.733 L406.762,56.908 L406.437,56.601 L404.704,57.113 L403.513,57.727 L402.213,57.932 L401.781,56.499 L403.296,53.119 L403.296,52.095 L404.92,51.071 L406.761,50.969 L406.22,49.228 L404.488,49.433 L402.647,48.614 L402.647,46.463 L401.347,45.644 L403.296,45.439 L404.162,47.59 L406.761,47.795 L406.761,17.992 L406.112,16.763 L406.112,15.33 L406.761,13.691 L406.761,12.36 L405.354,12.258 L403.621,13.691 L403.621,13.691 Z M387.269,10.005 L385.645,8.367 L384.996,7.343 L384.996,6.216 L386.187,6.011 L386.404,8.367 L388.136,8.879 L387.269,10.005 L387.269,10.005 Z M393.225,8.264 L391.817,7.855 L390.409,6.831 L389,7.343 L388.892,5.909 L387.809,5.192 L388.675,4.168 L388.675,3.349 L390.082,3.042 L391.598,3.963 L392.789,5.602 L393.439,7.343 L393.225,8.264 L393.225,8.264 Z M396.257,6.831 L396.257,6.011 L397.99,6.011 L396.257,6.831 L396.257,6.831 Z M401.13,47.794 L401.13,49.33 L399.722,48.92 L401.13,47.794 L401.13,47.794 Z M399.723,56.293 L398.857,56.6 L398.965,54.757 L399.94,54.757 L399.723,56.293 L399.723,56.293 Z M400.806,52.914 L400.264,51.582 L401.239,51.992 L400.806,52.914 L400.806,52.914 Z M404.271,16.661 L403.296,16.354 L401.672,16.354 L402.214,15.637 L403.838,15.33 L404.488,14.203 L404.704,14.203 L405.03,15.33 L404.271,16.661 L404.271,16.661 Z" id="XMLID_52_"></path>
                    <path d="M423.871,5.192 L422.788,4.679 L421.705,7.343 L421.705,7.855 L420.406,8.571 L418.349,8.776 L416.832,8.674 L415.425,9.493 L414.775,7.957 L413.476,7.035 L412.068,7.855 L410.985,7.855 L409.361,8.571 L408.169,9.493 L406.869,9.083 L406.112,8.367 L405.029,10.21 L406.762,10.722 L419.648,10.722 L420.839,9.8 L422.464,9.698 L424.196,9.903 L424.629,8.469 L424.522,6.626 L423.871,5.192 Z" id="XMLID_61_"></path>
                </g>
                <g id="XMLID_62_" transform="translate(71.000000, 91.000000)">
                    <path d="M1.268,10.913 C0.244,10.913 -0.267,10.379 -0.267,9.293 L-0.267,1.194 C-0.267,0.108 0.245,-0.426 1.268,-0.426 L5.25,-0.426 C6.289,-0.426 6.801,0.108 6.801,1.194 L6.801,3.122 L5.266,3.122 L5.266,1.956 C5.266,1.551 5.09,1.356 4.722,1.356 L2.019,1.356 C1.651,1.356 1.475,1.551 1.475,1.956 L1.475,8.613 C1.475,8.953 1.651,9.131 2.019,9.131 L4.786,9.131 C5.09,9.131 5.234,8.969 5.234,8.613 L5.234,6.151 L2.979,6.151 L3.139,4.58 L6.801,4.58 L6.801,9.456 C6.801,10.428 6.337,10.914 5.41,10.914 L1.268,10.914 L1.268,10.913 Z" id="XMLID_63_"></path>
                    <path d="M10.929,10.913 C9.905,10.913 9.394,10.379 9.394,9.293 L9.394,1.194 C9.394,0.108 9.906,-0.426 10.929,-0.426 L14.815,-0.426 C15.854,-0.426 16.366,0.108 16.366,1.194 L16.366,9.293 C16.366,10.379 15.854,10.913 14.815,10.913 L10.929,10.913 L10.929,10.913 Z M14.607,1.956 C14.607,1.551 14.431,1.356 14.079,1.356 L11.68,1.356 C11.312,1.356 11.136,1.551 11.136,1.956 L11.136,8.549 C11.136,8.938 11.312,9.132 11.68,9.132 L14.079,9.132 C14.431,9.132 14.607,8.938 14.607,8.549 L14.607,1.956 L14.607,1.956 Z" id="XMLID_65_"></path>
                    <path d="M20.526,10.913 C19.502,10.913 18.991,10.379 18.991,9.293 L18.991,-0.426 L20.734,-0.426 L20.734,8.548 C20.734,8.937 20.91,9.131 21.278,9.131 L23.341,9.131 C23.709,9.131 23.885,8.937 23.885,8.548 L23.885,-0.426 L25.644,-0.426 L25.644,9.293 C25.644,10.379 25.116,10.913 24.092,10.913 L20.526,10.913 L20.526,10.913 Z" id="XMLID_68_"></path>
                    <path d="M33.401,10.913 L33.401,7.171 C33.401,6.718 33.145,6.442 32.729,6.442 L30.058,6.442 L30.058,10.913 L28.315,10.913 L28.315,-0.426 L33.577,-0.426 C34.616,-0.426 35.128,0.108 35.128,1.194 L35.128,3.899 C35.128,4.887 34.648,5.47 33.801,5.6 C34.68,5.73 35.16,6.264 35.16,7.236 L35.16,10.913 L33.401,10.913 L33.401,10.913 Z M33.369,1.956 C33.369,1.551 33.193,1.356 32.841,1.356 L30.058,1.356 L30.058,4.888 L32.713,4.888 C33.129,4.888 33.369,4.613 33.369,4.175 L33.369,1.956 L33.369,1.956 Z" id="XMLID_70_"></path>
                    <path d="M44.646,10.913 L44.646,3.057 L42.087,7.981 L39.512,3.057 L39.512,10.913 L37.785,10.913 L37.785,-0.426 L39.64,-0.426 L42.087,4.514 L44.518,-0.426 L46.373,-0.426 L46.373,10.913 L44.646,10.913 L44.646,10.913 Z" id="XMLID_73_"></path>
                    <path d="M49.046,10.913 L49.046,-0.426 L55.283,-0.426 L55.155,1.356 L50.789,1.356 L50.789,4.159 L54.915,4.159 L54.771,5.714 L50.789,5.714 L50.789,9.131 L55.331,9.131 L55.331,10.913 L49.046,10.913 L49.046,10.913 Z" id="XMLID_75_"></path>
                    <path d="M59.89,10.913 L59.89,1.356 L57.155,1.356 L57.283,-0.426 L64.416,-0.426 L64.272,1.356 L61.665,1.356 L61.665,10.913 L59.89,10.913 L59.89,10.913 Z" id="XMLID_77_"></path>
                    <path d="M64.689,5.811 L64.689,4.677 L68.399,4.677 L68.399,5.811 L64.689,5.811 L64.689,5.811 Z" id="XMLID_79_"></path>
                    <path d="M75.804,10.913 L75.804,7.171 C75.804,6.718 75.548,6.442 75.132,6.442 L72.461,6.442 L72.461,10.913 L70.718,10.913 L70.718,-0.426 L75.98,-0.426 C77.019,-0.426 77.531,0.108 77.531,1.194 L77.531,3.899 C77.531,4.887 77.051,5.47 76.204,5.6 C77.083,5.73 77.563,6.264 77.563,7.236 L77.563,10.913 L75.804,10.913 L75.804,10.913 Z M75.772,1.956 C75.772,1.551 75.596,1.356 75.244,1.356 L72.461,1.356 L72.461,4.888 L75.116,4.888 C75.532,4.888 75.772,4.613 75.772,4.175 L75.772,1.956 L75.772,1.956 Z" id="XMLID_81_"></path>
                    <path d="M80.22,10.913 L80.22,-0.426 L86.457,-0.426 L86.329,1.356 L81.963,1.356 L81.963,4.159 L86.089,4.159 L85.945,5.714 L81.963,5.714 L81.963,9.131 L86.505,9.131 L86.505,10.913 L80.22,10.913 L80.22,10.913 Z" id="XMLID_84_"></path>
                    <path d="M90.329,10.913 C89.305,10.913 88.794,10.379 88.794,9.293 L88.794,7.349 L90.329,7.349 L90.329,8.645 C90.329,9.05 90.505,9.245 90.857,9.245 L93.32,9.245 C93.672,9.245 93.864,9.05 93.864,8.645 L93.864,6.621 C93.864,6.232 93.672,6.021 93.32,6.021 L90.329,6.021 C89.305,6.021 88.794,5.487 88.794,4.402 L88.794,1.195 C88.794,0.109 89.306,-0.425 90.329,-0.425 L93.959,-0.425 C94.999,-0.425 95.511,0.109 95.511,1.195 L95.511,3.058 L93.976,3.058 L93.976,1.843 C93.976,1.438 93.8,1.243 93.448,1.243 L90.985,1.243 C90.633,1.243 90.457,1.438 90.457,1.843 L90.457,3.803 C90.457,4.192 90.633,4.403 90.985,4.403 L93.96,4.403 C95,4.403 95.512,4.937 95.512,6.022 L95.512,9.294 C95.512,10.38 95,10.914 93.96,10.914 L90.329,10.914 L90.329,10.913 Z" id="XMLID_86_"></path>
                    <path d="M100.23,10.913 L100.23,1.356 L97.495,1.356 L97.623,-0.426 L104.756,-0.426 L104.612,1.356 L102.005,1.356 L102.005,10.913 L100.23,10.913 L100.23,10.913 Z" id="XMLID_88_"></path>
                    <path d="M110.722,8.759 L107.46,8.759 L106.948,10.913 L105.109,10.913 L107.988,-0.426 L110.307,-0.426 L113.218,10.913 L111.251,10.913 L110.722,8.759 L110.722,8.759 Z M107.748,7.431 L110.435,7.431 L109.091,2.037 L107.748,7.431 L107.748,7.431 Z" id="XMLID_90_"></path>
                    <path d="M116.785,10.913 C115.761,10.913 115.25,10.379 115.25,9.293 L115.25,-0.426 L116.993,-0.426 L116.993,8.548 C116.993,8.937 117.169,9.131 117.537,9.131 L119.6,9.131 C119.968,9.131 120.144,8.937 120.144,8.548 L120.144,-0.426 L121.903,-0.426 L121.903,9.293 C121.903,10.379 121.375,10.913 120.351,10.913 L116.785,10.913 L116.785,10.913 Z" id="XMLID_93_"></path>
                    <path d="M129.661,10.913 L129.661,7.171 C129.661,6.718 129.405,6.442 128.989,6.442 L126.318,6.442 L126.318,10.913 L124.575,10.913 L124.575,-0.426 L129.837,-0.426 C130.876,-0.426 131.388,0.108 131.388,1.194 L131.388,3.899 C131.388,4.887 130.908,5.47 130.061,5.6 C130.94,5.73 131.42,6.264 131.42,7.236 L131.42,10.913 L129.661,10.913 L129.661,10.913 Z M129.629,1.956 C129.629,1.551 129.453,1.356 129.101,1.356 L126.318,1.356 L126.318,4.888 L128.973,4.888 C129.389,4.888 129.629,4.613 129.629,4.175 L129.629,1.956 L129.629,1.956 Z" id="XMLID_95_"></path>
                    <path d="M139.002,8.759 L135.74,8.759 L135.228,10.913 L133.389,10.913 L136.268,-0.426 L138.587,-0.426 L141.498,10.913 L139.531,10.913 L139.002,8.759 L139.002,8.759 Z M136.027,7.431 L138.714,7.431 L137.37,2.037 L136.027,7.431 L136.027,7.431 Z" id="XMLID_98_"></path>
                    <path d="M149.142,10.913 L149.142,8.742 L145.256,2.7 L145.256,10.913 L143.529,10.913 L143.529,-0.426 L145.288,-0.426 L149.142,5.584 L149.142,-0.426 L150.869,-0.426 L150.869,10.913 L149.142,10.913 L149.142,10.913 Z" id="XMLID_101_"></path>
                    <path d="M155.653,10.913 L155.653,1.356 L152.918,1.356 L153.046,-0.426 L160.179,-0.426 L160.035,1.356 L157.428,1.356 L157.428,10.913 L155.653,10.913 L155.653,10.913 Z" id="XMLID_103_"></path>
                    <path d="M167.505,10.913 L167.505,-0.426 L168.768,-0.426 L168.768,10.913 L167.505,10.913 L167.505,10.913 Z" id="XMLID_105_"></path>
                    <path d="M178.542,7.237 L178.542,10.914 L176.783,10.914 L176.783,-0.425 L181.901,-0.425 C182.941,-0.425 183.453,0.109 183.453,1.195 L183.453,5.617 C183.453,6.702 182.941,7.237 181.901,7.237 L178.542,7.237 L178.542,7.237 Z M181.724,1.956 C181.724,1.567 181.548,1.356 181.196,1.356 L178.541,1.356 L178.541,5.535 L181.196,5.535 C181.548,5.535 181.724,5.341 181.724,4.952 L181.724,1.956 L181.724,1.956 Z" id="XMLID_107_"></path>
                    <path d="M185.948,10.913 L185.948,-0.426 L192.185,-0.426 L192.057,1.356 L187.691,1.356 L187.691,4.709 L191.737,4.709 L191.577,6.28 L187.691,6.28 L187.691,10.913 L185.948,10.913 L185.948,10.913 Z" id="XMLID_110_"></path>
                    <path d="M198.727,8.759 L195.465,8.759 L194.953,10.913 L193.114,10.913 L195.993,-0.426 L198.312,-0.426 L201.223,10.913 L199.256,10.913 L198.727,8.759 L198.727,8.759 Z M195.752,7.431 L198.439,7.431 L197.095,2.037 L195.752,7.431 L195.752,7.431 Z" id="XMLID_112_"></path>
                    <path d="M203.286,10.913 L203.286,-0.426 L209.523,-0.426 L209.395,1.356 L205.029,1.356 L205.029,4.709 L209.075,4.709 L208.915,6.28 L205.029,6.28 L205.029,10.913 L203.286,10.913 L203.286,10.913 Z" id="XMLID_115_"></path>
                    <path d="M211.875,10.913 L211.875,-0.426 L218.112,-0.426 L217.984,1.356 L213.618,1.356 L213.618,4.709 L217.664,4.709 L217.504,6.28 L213.618,6.28 L213.618,10.913 L211.875,10.913 L211.875,10.913 Z" id="XMLID_117_"></path>
                    <path d="M220.465,10.913 L220.465,-0.426 L226.702,-0.426 L226.574,1.356 L222.208,1.356 L222.208,4.159 L226.334,4.159 L226.19,5.714 L222.208,5.714 L222.208,9.131 L226.75,9.131 L226.75,10.913 L220.465,10.913 L220.465,10.913 Z" id="XMLID_119_"></path>
                    <path d="M234.796,10.913 L234.796,8.742 L230.91,2.7 L230.91,10.913 L229.183,10.913 L229.183,-0.426 L230.942,-0.426 L234.796,5.584 L234.796,-0.426 L236.523,-0.426 L236.523,10.913 L234.796,10.913 L234.796,10.913 Z" id="XMLID_121_"></path>
                    <path d="M244.473,10.913 L244.473,5.616 L240.987,5.616 L240.987,10.913 L239.212,10.913 L239.212,-0.426 L240.987,-0.426 L240.987,3.931 L244.473,3.931 L244.473,-0.426 L246.248,-0.426 L246.248,10.913 L244.473,10.913 L244.473,10.913 Z" id="XMLID_123_"></path>
                    <path d="M250.455,10.913 C249.431,10.913 248.92,10.379 248.92,9.293 L248.92,1.194 C248.92,0.108 249.432,-0.426 250.455,-0.426 L254.341,-0.426 C255.38,-0.426 255.892,0.108 255.892,1.194 L255.892,9.293 C255.892,10.379 255.38,10.913 254.341,10.913 L250.455,10.913 L250.455,10.913 Z M254.134,1.956 C254.134,1.551 253.958,1.356 253.606,1.356 L251.207,1.356 C250.839,1.356 250.663,1.551 250.663,1.956 L250.663,8.549 C250.663,8.938 250.839,9.132 251.207,9.132 L253.606,9.132 C253.958,9.132 254.134,8.938 254.134,8.549 L254.134,1.956 L254.134,1.956 Z" id="XMLID_125_"></path>
                    <path d="M258.549,10.913 L258.549,-0.426 L264.786,-0.426 L264.658,1.356 L260.292,1.356 L260.292,4.709 L264.338,4.709 L264.178,6.28 L260.292,6.28 L260.292,10.913 L258.549,10.913 L258.549,10.913 Z" id="XMLID_128_"></path>
                    <path d="M267.139,10.913 L267.139,-0.426 L273.376,-0.426 L273.248,1.356 L268.882,1.356 L268.882,4.159 L273.008,4.159 L272.864,5.714 L268.882,5.714 L268.882,9.131 L273.424,9.131 L273.424,10.913 L267.139,10.913 L267.139,10.913 Z" id="XMLID_130_"></path>
                    <path d="M281.469,10.913 L281.469,8.742 L277.583,2.7 L277.583,10.913 L275.856,10.913 L275.856,-0.426 L277.615,-0.426 L281.469,5.584 L281.469,-0.426 L283.196,-0.426 L283.196,10.913 L281.469,10.913 L281.469,10.913 Z" id="XMLID_132_"></path>
                </g>
            </g>
        </g>
    </g>
</svg>